<svg width="50" height="54" viewBox="0 0 50 54" fill="none" xmlns="http://www.w3.org/2000/svg">
<path d="M0 10C0 4.47715 4.47715 0 10 0H40C45.5228 0 50 4.47715 50 10V40C50 45.5228 45.5228 50 40 50H18.678C17.66 50 16.74 50.6067 16.339 51.5423C15.4577 53.5988 12.5423 53.5988 11.661 51.5423C11.26 50.6067 10.34 50 9.322 50H6.62892C2.96787 50 0 47.0321 0 43.3711V10Z" fill="#312626"/>
<path d="M14.2666 37L5.02664 16H8.26664L16.7566 35.38H14.8966L23.4466 16H26.4466L17.2366 37H14.2666ZM31.8246 25.93H42.6546V28.51H31.8246V25.93ZM32.1246 37H29.1246V16H43.9446V18.61H32.1246V37Z" fill="white"/>
</svg>
